<?xml version="1.0" standalone="no"?>
<!DOCTYPE svg PUBLIC "-//W3C//DTD SVG 20010904//EN"
 "http://www.w3.org/TR/2001/REC-SVG-20010904/DTD/svg10.dtd">
<svg version="1.0" xmlns="http://www.w3.org/2000/svg"
 width="512.000000pt" height="512.000000pt" viewBox="0 0 512.000000 512.000000"
 preserveAspectRatio="xMidYMid meet">

<g transform="translate(0.000000,512.000000) scale(0.100000,-0.100000)"
fill="#000000" stroke="none">
<path d="M1340 4020 l0 -280 858 -2 857 -3 78 -37 c290 -139 356 -498 132
-724 -62 -62 -137 -105 -216 -123 -25 -6 -193 -11 -389 -11 -256 0 -349 -3
-358 -12 -9 -9 -12 -84 -12 -276 l0 -264 528 -733 527 -734 383 0 c304 -1 382
2 376 12 -4 6 -239 333 -521 725 -282 392 -513 716 -513 721 0 4 28 11 63 15
186 19 386 109 545 244 118 101 234 276 288 435 198 581 -175 1206 -785 1312
-69 12 -235 15 -962 15 l-879 0 0 -280z"/>
<path d="M1340 2130 l0 -1310 320 0 320 0 0 1310 0 1310 -320 0 -320 0 0
-1310z"/>
</g>
</svg>
